<svg xmlns="http://www.w3.org/2000/svg" version="1.1" xmlns:xlink="http://www.w3.org/1999/xlink" xmlns:svgjs="http://svgjs.dev/svgjs" viewBox="0 0 800 800" opacity="1"><defs><symbol id="bbburst-shape-1" viewBox="0 0 194 167"><path d="m97 0 96.129 166.5H.871L97 0Z"></path></symbol><symbol id="bbburst-shape-9" viewBox="0 0 182 172"><path d="M13.5809 69.845 91 13.5967l77.419 56.2483-29.571 91.012H43.1524L13.5809 69.845Z" stroke-width="22"></path></symbol><symbol id="bbburst-shape-10" viewBox="0 0 145 145"><circle cx="72.5" cy="72.5" r="61.5" fill="none" stroke-width="22"></circle></symbol><symbol id="bbburst-shape-11" viewBox="0 0 194 167"><path d="M10.398 161 97 11l86.603 150H10.397Z" stroke-width="11"></path></symbol><symbol id="bbburst-shape-13" viewBox="0 0 159 159"><path stroke-width="22" d="M11 11h137v137H11z"></path></symbol></defs><use xlink:href="#bbburst-shape-9" width="0" opacity="0" transform="matrix(0.9958407080902567,0.09111138298970152,-0.09111138298970152,0.9958407080902567,8.325854262335142,-7.9283295778630105)" fill="none" stroke="#fff200"></use><use xlink:href="#bbburst-shape-10" width="50.48773872288936" opacity="0.3348826112338593" transform="matrix(0.9833299416665432,-0.18183021152182802,0.18183021152182802,0.9833299416665432,202.8820597948755,50.368729290350416)" fill="none" stroke="#00f33f"></use><use xlink:href="#bbburst-shape-13" width="14.641162907386741" opacity="0.7720088656760349" transform="matrix(0.9964488257092786,0.08420058041723748,-0.08420058041723748,0.9964488257092786,722.8329387115606,-196.07823486513504)" fill="none" stroke="#ff298e"></use><use xlink:href="#bbburst-shape-10" width="18.441038784224645" opacity="0.7152041232779158" transform="matrix(0.9107256347088921,-0.4130118863714284,0.4130118863714284,0.9107256347088921,494.9228333706576,-107.84993715619828)" fill="none" stroke="#Ffbb040"></use><use xlink:href="#bbburst-shape-9" width="39.67106284825067" opacity="0.4231651366511" transform="matrix(0.8605732704203914,-0.5093266596575834,0.5093266596575834,0.8605732704203914,44.76220451009735,-116.96093412761078)" fill="none" stroke="#00aeef"></use><use xlink:href="#bbburst-shape-11" width="36.02756893441991" opacity="0.47802048625149685" transform="matrix(0.8136430436078108,-0.5813647715407411,0.5813647715407411,0.8136430436078108,499.6554312992586,203.93250258770627)" fill="none" stroke="#00e7dc"></use><use xlink:href="#bbburst-shape-1" width="15.731133770737516" opacity="0.8029938042954041" transform="matrix(0.9870827584276489,0.16021119815688156,-0.16021119815688156,0.9870827584276489,664.6865928486875,-350.3663415547744)" fill="#00e7dc"></use><use xlink:href="#bbburst-shape-1" width="12.208818772262356" opacity="0.7650122234666208" transform="matrix(0.992692139372104,-0.12067442325876392,0.12067442325876392,0.992692139372104,721.9650550017388,-162.53575804003378)" fill="#fff200"></use><use xlink:href="#bbburst-shape-11" width="10.94589997293692" opacity="0.8461193277137156" transform="matrix(0.7295816178976504,-0.6838937511235549,0.6838937511235549,0.7295816178976504,372.81659995248157,-251.88692280543694)" fill="none" stroke="#00aeef"></use><use xlink:href="#bbburst-shape-11" width="17.249339967844254" opacity="0.7981034468608468" transform="matrix(0.9833542224121926,0.1816988532272894,-0.1816988532272894,0.9833542224121926,712.3500440241734,-262.1160519727231)" fill="none" stroke="#ff298e"></use><use xlink:href="#bbburst-shape-10" width="78.69939251592987" opacity="-0.01068246997125799" transform="matrix(0.770568423204048,0.63735728219016,-0.63735728219016,0.770568423204048,306.97421906149947,378.35407794214296)" fill="none" stroke="#00aeef"></use><use xlink:href="#bbburst-shape-9" width="42.87572158522726" opacity="0.33414289021801913" transform="matrix(0.931453663101829,-0.3638599641265641,0.3638599641265641,0.931453663101829,214.88818436882394,152.047575348851)" fill="none" stroke="#fff200"></use><use xlink:href="#bbburst-shape-13" width="28.364279802841146" opacity="0.6089609789495223" transform="matrix(0.9986404871108657,0.0521265527631825,-0.0521265527631825,0.9986404871108657,658.0209585108762,-38.51922457824247)" fill="none" stroke="#fff200"></use><use xlink:href="#bbburst-shape-13" width="10.147124163617809" opacity="0.8665050585250942" transform="matrix(0.7788117518830712,0.6272577262408344,-0.6272577262408344,0.7788117518830712,1010.1711930652091,-186.37906805373854)" fill="none" stroke="#fff200"></use><use xlink:href="#bbburst-shape-9" width="13.996173303024142" opacity="0.831636937410387" transform="matrix(0.8762552424364844,0.4818472269325392,-0.4818472269325392,0.8762552424364844,939.1951600321036,-192.42057062663432)" fill="none" stroke="#00f33f"></use><use xlink:href="#bbburst-shape-1" width="9.581219116144588" opacity="0.8904389945773405" transform="matrix(0.7735372962641959,-0.6337507801086146,0.6337507801086146,0.7735372962641959,499.1663109737209,-205.87275768924457)" fill="#00f33f"></use><use xlink:href="#bbburst-shape-1" width="8.679563307881963" opacity="0.9202698774697218" transform="matrix(0.8540882521510966,-0.520128116465054,0.520128116465054,0.8540882521510966,526.7012508008863,-288.6843065147951)" fill="#ff298e"></use><use xlink:href="#bbburst-shape-9" width="11.0130788221171" opacity="0.8242028739601749" transform="matrix(0.7616259967255382,-0.6480168524906049,0.6480168524906049,0.7616259967255382,373.37882521356744,-235.7214847648171)" fill="none" stroke="#fff200"></use><use xlink:href="#bbburst-shape-11" width="26.7294626422632" opacity="0.52412035642121" transform="matrix(0.951177973018342,0.3086429387572611,-0.3086429387572611,0.951177973018342,451.1733204482895,-261.80734220741243)" fill="none" stroke="#fff200"></use><use xlink:href="#bbburst-shape-9" width="53.20021850317017" opacity="0.36948476731413793" transform="matrix(0.9951800137801688,-0.09806497933769721,0.09806497933769721,0.9951800137801688,197.69343150077555,-64.70360846653034)" fill="none" stroke="#00e7dc"></use><use xlink:href="#bbburst-shape-9" width="9.270296359797825" opacity="0.9429974579964394" transform="matrix(0.8300340178338345,-0.5577127658917463,0.5577127658917463,0.8300340178338345,526.268128179137,-296.88647646570337)" fill="none" stroke="#ff298e"></use><use xlink:href="#bbburst-shape-1" width="51.721337970252605" opacity="0.18533785053173657" transform="matrix(0.9000883661058839,-0.4357073940167188,0.4357073940167188,0.9000883661058839,26.74991815527781,227.6790938594428)" fill="#00aeef"></use><use xlink:href="#bbburst-shape-1" width="7.629653344551069" opacity="0.9637911483503095" transform="matrix(0.99991659480928,-0.012915240029295052,0.012915240029295052,0.99991659480928,759.2027794328881,-382.6223983466959)" fill="#ff298e"></use><use xlink:href="#bbburst-shape-9" width="23.37559324978097" opacity="0.6700258283891156" transform="matrix(0.8263520965490755,-0.5631538089447211,0.5631538089447211,0.8263520965490755,288.8386724881178,-143.4718394224494)" fill="none" stroke="#00e7dc"></use><use xlink:href="#bbburst-shape-11" width="31.424198912988253" opacity="0.45587854133112726" transform="matrix(0.9998128682618657,-0.01934498534455974,0.01934498534455974,0.9998128682618657,576.9519912380682,106.16638227187747)" fill="none" stroke="#ff298e"></use><use xlink:href="#bbburst-shape-10" width="17.608201252380162" opacity="0.7497307918656327" transform="matrix(0.9923710813777239,-0.12328680726341697,0.12328680726341697,0.9923710813777239,659.7637152307359,-159.4727251769433)" fill="none" stroke="#00e7dc"></use><use xlink:href="#bbburst-shape-10" width="42.78170159060759" opacity="0.2200844607193645" transform="matrix(0.8748586840373838,0.4843782436943026,-0.4843782436943026,0.8748586840373838,757.6339673808295,388.6972856894008)" fill="none" stroke="#Ffbb040"></use><use xlink:href="#bbburst-shape-10" width="46.17863222926637" opacity="0.2955776522854565" transform="matrix(0.993447420768297,-0.11429007904808836,0.11429007904808836,0.993447420768297,467.47840816679667,258.3944726952674)" fill="none" stroke="#Ffbb040"></use><use xlink:href="#bbburst-shape-9" width="46.82618966694373" opacity="0.2406414530398131" transform="matrix(0.897246238916848,-0.4415305048913048,0.4415305048913048,0.897246238916848,178.67834761711677,281.40978429874184)" fill="none" stroke="#00f33f"></use><use xlink:href="#bbburst-shape-11" width="39.54517121840801" opacity="0.34874874532651134" transform="matrix(0.9976111562989306,0.06907952538857401,-0.06907952538857401,0.9976111562989306,176.41616607397845,-241.84716120483034)" fill="none" stroke="#00e7dc"></use><use xlink:href="#bbburst-shape-11" width="36.204121158332384" opacity="0.572213085751323" transform="matrix(0.9200407261495994,0.3918227433752637,-0.3918227433752637,0.9200407261495994,590.0855449914849,-129.8120621358896)" fill="none" stroke="#ff298e"></use><use xlink:href="#bbburst-shape-13" width="13.624504315530187" opacity="0.8541512422939642" transform="matrix(0.8728658155071781,0.4879603140819844,-0.4879603140819844,0.8728658155071781,858.5927635605207,-287.63451326993663)" fill="none" stroke="#00aeef"></use><use xlink:href="#bbburst-shape-10" width="7.041410601996434" opacity="0.9565307163367974" transform="matrix(0.9930909027735385,-0.1173475983070733,0.1173475983070733,0.9930909027735385,723.3464247278604,-362.15064744816516)" fill="none" stroke="#Ffbb040"></use><use xlink:href="#bbburst-shape-10" width="19.098791882371092" opacity="0.7346782388036186" transform="matrix(0.9921158850125824,0.12532386327312278,-0.12532386327312278,0.9921158850125824,683.6597844835809,-184.15529391909433)" fill="none" stroke="#00f33f"></use><use xlink:href="#bbburst-shape-9" width="17.69694304064754" opacity="0.7536864789848932" transform="matrix(0.9189051353498814,0.394478582723595,-0.394478582723595,0.9189051353498814,773.2608815788294,-199.29916065452636)" fill="none" stroke="#fff200"></use><use xlink:href="#bbburst-shape-13" width="7.489567835158322" opacity="0.9525612029112805" transform="matrix(0.7224133326443889,-0.6914614789108845,0.6914614789108845,0.7224133326443889,473.90443707559814,-278.65151924511764)" fill="none" stroke="#fff200"></use><use xlink:href="#bbburst-shape-10" width="40.8487737009243" opacity="0.4408517128825753" transform="matrix(0.9916598032395244,0.12888302696223358,-0.12888302696223358,0.9916598032395244,459.2800697855669,18.134683186564644)" fill="none" stroke="#00e7dc"></use><use xlink:href="#bbburst-shape-9" width="11.21846890267468" opacity="0.7962604585898272" transform="matrix(0.9405006908654016,-0.33979177518254094,0.33979177518254094,0.9405006908654016,642.0614068897197,-171.31316577709669)" fill="none" stroke="#00aeef"></use><use xlink:href="#bbburst-shape-9" width="40.172892989016056" opacity="0.23936416108531644" transform="matrix(0.9413631305800434,0.3373951042687788,-0.3373951042687788,0.9413631305800434,158.51365110005966,-315.99007463181215)" fill="none" stroke="#ff298e"></use><use xlink:href="#bbburst-shape-13" width="30.219719766870128" opacity="0.6700599691644573" transform="matrix(0.8517250912540774,-0.5239889015315435,0.5239889015315435,0.8517250912540774,377.3569278792121,-70.49576115250426)" fill="none" stroke="#00aeef"></use><use xlink:href="#bbburst-shape-11" width="9.87028350909365" opacity="0.8860024000318781" transform="matrix(0.7216978849541095,0.6922081788398379,-0.6922081788398379,0.7216978849541095,1060.6849834616748,-178.90189909383582)" fill="none" stroke="#00f33f"></use><use xlink:href="#bbburst-shape-9" width="15.919802850532879" opacity="0.7883486308090093" transform="matrix(0.999281197103942,0.03790895823565285,-0.03790895823565285,0.999281197103942,679.8702482239339,-231.0652524032692)" fill="none" stroke="#00f33f"></use><use xlink:href="#bbburst-shape-9" width="17.456715056940354" opacity="0.7907185546637157" transform="matrix(0.9194829131739511,0.39312996881584106,-0.39312996881584106,0.9194829131739511,893.5499715803155,-169.605938462491)" fill="none" stroke="#Ffbb040"></use><use xlink:href="#bbburst-shape-11" width="34.54128905680321" opacity="0.3170335956791941" transform="matrix(0.9906139522391688,-0.1366894203261314,0.1366894203261314,0.9906139522391688,632.5090127318296,281.9100923790668)" fill="none" stroke="#fff200"></use><use xlink:href="#bbburst-shape-10" width="12.560322370235292" opacity="0.8247620494348944" transform="matrix(0.9525085639171421,0.30451179889210145,-0.30451179889210145,0.9525085639171421,897.8420729030819,-208.60277670428025)" fill="none" stroke="#ff298e"></use><use xlink:href="#bbburst-shape-13" width="19.521034683223494" opacity="0.7052096238509544" transform="matrix(0.990395266995346,0.1382650176769862,-0.1382650176769862,0.990395266995346,557.7451067742873,-334.11737773444224)" fill="none" stroke="#00aeef"></use><use xlink:href="#bbburst-shape-1" width="23.984094928915447" opacity="0.6872121851379789" transform="matrix(0.806898382056487,-0.5906902750465962,0.5906902750465962,0.806898382056487,265.5209208229665,-194.91110684925115)" fill="#00aeef"></use><use xlink:href="#bbburst-shape-13" width="31.879988914159515" opacity="0.6264856131368957" transform="matrix(0.9490045014824762,-0.31526251944371186,0.31526251944371186,0.9490045014824762,387.75803891179424,-117.54213340687812)" fill="none" stroke="#00aeef"></use><use xlink:href="#bbburst-shape-10" width="14.31065321598945" opacity="0.8309472657702492" transform="matrix(0.9980673532310369,0.062141438785986866,-0.062141438785986866,0.9980673532310369,713.3696339414013,-266.6645915595626)" fill="none" stroke="#00e7dc"></use><use xlink:href="#bbburst-shape-11" width="10.814597682440297" opacity="0.8810974252544773" transform="matrix(0.9853532684108974,0.17052547150488073,-0.17052547150488073,0.9853532684108974,750.1221000199905,-357.5490465264272)" fill="none" stroke="#ff298e"></use><use xlink:href="#bbburst-shape-13" width="14.141762923348638" opacity="0.7305198995554526" transform="matrix(0.9728297521887224,-0.23152164748988188,0.23152164748988188,0.9728297521887224,648.3718141902687,-123.10711322304894)" fill="none" stroke="#ff298e"></use><use xlink:href="#bbburst-shape-9" width="26.42009555009233" opacity="0.62617364199425" transform="matrix(0.7715964385751725,0.636112361126641,-0.636112361126641,0.7715964385751725,1014.9361577870345,55.48710156962255)" fill="none" stroke="#Ffbb040"></use><use xlink:href="#bbburst-shape-9" width="39.76262024067349" opacity="0.16388499070725004" transform="matrix(0.7173342575105242,0.6967291891415379,-0.6967291891415379,0.7173342575105242,682.796422524792,442.8644969704284)" fill="none" stroke="#fff200"></use><use xlink:href="#bbburst-shape-9" width="37.783356772696685" opacity="0.5460903097597454" transform="matrix(0.9601674903252821,-0.2794251071798115,0.2794251071798115,0.9601674903252821,364.3449948517806,-43.47790782565579)" fill="none" stroke="#Ffbb040"></use><use xlink:href="#bbburst-shape-10" width="11.674614344291305" opacity="0.8616147247281098" transform="matrix(0.8309606405351554,0.5563312087968859,-0.5563312087968859,0.8309606405351554,879.890524840003,-322.82483018239896)" fill="none" stroke="#Ffbb040"></use><use xlink:href="#bbburst-shape-10" width="22.016916320786642" opacity="0.6546034350933048" transform="matrix(0.98831101251128,-0.15245111527610614,0.15245111527610614,0.98831101251128,642.0439565993346,-59.15206529596327)" fill="none" stroke="#00f33f"></use><use xlink:href="#bbburst-shape-1" width="53.807242083976185" opacity="0.37315020426191037" transform="matrix(0.9720935165276947,-0.23459368091408714,0.23459368091408714,0.9720935165276947,379.6504643226105,167.73702696071712)" fill="#00e7dc"></use><use xlink:href="#bbburst-shape-9" width="17.574406971999725" opacity="0.74631036890734" transform="matrix(0.9663904245582922,-0.25707887373731,0.25707887373731,0.9663904245582922,477.07635295213197,-244.4235941473658)" fill="none" stroke="#Ffbb040"></use><use xlink:href="#bbburst-shape-11" width="46.46580825503416" opacity="0.17215757009971366" transform="matrix(0.8586655069945732,0.5125363861207832,-0.5125363861207832,0.8586655069945732,240.03039361985074,4.373972020431154)" fill="none" stroke="#00f33f"></use><use xlink:href="#bbburst-shape-1" width="7.207778016429068" opacity="0.9519379368845791" transform="matrix(0.9264045060561485,-0.3765298011563805,0.3765298011563805,0.9264045060561485,636.0941213399258,-322.17724392090315)" fill="#00aeef"></use><use xlink:href="#bbburst-shape-1" width="36.62608211776122" opacity="0.48168582855862785" transform="matrix(0.7466498537382171,0.6652172546715087,-0.6652172546715087,0.7466498537382171,602.1487897707123,-54.019841369863514)" fill="#Ffbb040"></use><use xlink:href="#bbburst-shape-10" width="8.69623234179826" opacity="0.8870135206727375" transform="matrix(0.9999531717114576,0.0096775195270401,-0.0096775195270401,0.9999531717114576,687.1313223185175,-388.44605651687505)" fill="none" stroke="#ff298e"></use><use xlink:href="#bbburst-shape-9" width="11.791752508426407" opacity="0.8247480741171943" transform="matrix(0.9535909038116571,0.301105277548679,-0.301105277548679,0.9535909038116571,740.1544999054036,-369.25553688949293)" fill="none" stroke="#00f33f"></use><use xlink:href="#bbburst-shape-10" width="27.863393722417246" opacity="0.4897313443321748" transform="matrix(0.8434636664956101,0.5371862277662953,-0.5371862277662953,0.8434636664956101,494.43660831488495,-304.7241880287642)" fill="none" stroke="#00e7dc"></use><use xlink:href="#bbburst-shape-10" width="6.957490122117795" opacity="0.9341930254425944" transform="matrix(0.9832338120327413,-0.18234931004959698,0.18234931004959698,0.9832338120327413,661.648288782818,-370.57743332446915)" fill="none" stroke="#ff298e"></use><use xlink:href="#bbburst-shape-13" width="29.41007674323097" opacity="0.4497589400266544" transform="matrix(0.981091702853503,0.19354345918168808,-0.19354345918168808,0.981091702853503,327.1125689658188,-270.3820039906021)" fill="none" stroke="#00e7dc"></use><use xlink:href="#bbburst-shape-1" width="12.922709160202963" opacity="0.8720114671066986" transform="matrix(0.9321567645102156,0.3620549217699527,-0.3620549217699527,0.9321567645102156,860.7775920246225,-273.72388746670146)" fill="#00aeef"></use><use xlink:href="#bbburst-shape-11" width="33.75652173137033" opacity="0.24175598667571951" transform="matrix(0.9718147217202712,0.235745936651625,-0.235745936651625,0.9718147217202712,812.3075036737512,362.26545077032824)" fill="none" stroke="#00aeef"></use><use xlink:href="#bbburst-shape-9" width="18.744574911620827" opacity="0.7000271447559284" transform="matrix(0.7603701967089478,0.6494899259856123,-0.6494899259856123,0.7603701967089478,962.2886694673418,-24.32408316131756)" fill="none" stroke="#fff200"></use><use xlink:href="#bbburst-shape-11" width="65.30415987038562" opacity="0.0915820495556584" transform="matrix(0.9407011808821204,0.33923633102452955,-0.33923633102452955,0.9407011808821204,173.821791083608,150.56739728996143)" fill="none" stroke="#00e7dc"></use><use xlink:href="#bbburst-shape-1" width="4.676628460542157" opacity="0.9889183121814235" transform="matrix(0.9123162339148639,-0.4094863725881477,0.4094863725881477,0.9123162339148639,627.3694302619771,-355.14056099163855)" fill="#fff200"></use><use xlink:href="#bbburst-shape-10" width="15.420071558241272" opacity="0.8532267024920843" transform="matrix(0.9984387208255258,0.05585804110678983,-0.05585804110678983,0.9984387208255258,747.9683794823393,-269.05218173439505)" fill="none" stroke="#ff298e"></use><use xlink:href="#bbburst-shape-9" width="19.818585621785022" opacity="0.7574095374981683" transform="matrix(0.9980767736535712,-0.0619899499376957,0.0619899499376957,0.9980767736535712,529.4676177846882,-341.911177804248)" fill="none" stroke="#00e7dc"></use><use xlink:href="#bbburst-shape-10" width="28.580748034831643" opacity="0.7000762666639131" transform="matrix(0.9999651577186628,0.008347655280968414,-0.008347655280968414,0.9999651577186628,567.7618108533602,-197.655033302656)" fill="none" stroke="#Ffbb040"></use><use xlink:href="#bbburst-shape-9" width="26.867904701219732" opacity="0.5464835638889785" transform="matrix(0.8513212845419927,0.5246447088132801,-0.5246447088132801,0.8513212845419927,582.4163092550666,-167.34793459412333)" fill="none" stroke="#00e7dc"></use><use xlink:href="#bbburst-shape-9" width="5.567222375599878" opacity="0.9262683686310312" transform="matrix(0.9927779010003149,0.11996682577033113,-0.11996682577033113,0.9927779010003149,772.0937372489673,-388.11362130525566)" fill="none" stroke="#fff200"></use><use xlink:href="#bbburst-shape-9" width="13.436301069578104" opacity="0.8147453368909703" transform="matrix(0.8002985977079667,0.5996016631953768,-0.5996016631953768,0.8002985977079667,878.0098877203379,-225.10220440087494)" fill="none" stroke="#fff200"></use><use xlink:href="#bbburst-shape-9" width="20.919497546444745" opacity="0.5955874259993763" transform="matrix(0.8755092390974185,0.48320137857321904,-0.48320137857321904,0.8755092390974185,590.9204507066429,-261.1065450405036)" fill="none" stroke="#ff298e"></use><use xlink:href="#bbburst-shape-11" width="30.753268319325908" opacity="0.5558421919144907" transform="matrix(0.9684570460423269,0.24918055696817581,-0.24918055696817581,0.9684570460423269,442.3978091393832,-353.04632479441767)" fill="none" stroke="#00e7dc"></use><use xlink:href="#bbburst-shape-11" width="15.670888542734712" opacity="0.8477455186956406" transform="matrix(0.9952776975152873,-0.09706855736369129,0.09706855736369129,0.9952776975152873,637.813651477392,-298.39640147672924)" fill="none" stroke="#fff200"></use><use xlink:href="#bbburst-shape-10" width="26.53543643655112" opacity="0.6167571483148939" transform="matrix(0.8624662179827661,0.5061146340884678,-0.5061146340884678,0.8624662179827661,608.7852508464965,-323.68818861369033)" fill="none" stroke="#00f33f"></use><use xlink:href="#bbburst-shape-9" width="33.790777194572684" opacity="0.3948705525424041" transform="matrix(0.9326573244907596,0.36076351682748925,-0.36076351682748925,0.9326573244907596,886.4761540898976,224.28881297820686)" fill="none" stroke="#fff200"></use><use xlink:href="#bbburst-shape-10" width="32.43543314768829" opacity="0.32356840713117785" transform="matrix(0.8149260911607749,0.5795648936447242,-0.5795648936447242,0.8149260911607749,344.6945136625822,-277.07746380197943)" fill="none" stroke="#Ffbb040"></use><use xlink:href="#bbburst-shape-9" width="16.935168663266367" opacity="0.8142231317963207" transform="matrix(0.9416265769051344,0.3366591594861472,-0.3366591594861472,0.9416265769051344,844.3535427271104,-213.09346944774387)" fill="none" stroke="#Ffbb040"></use><use xlink:href="#bbburst-shape-9" width="47.871387804596736" opacity="0.2357061114478476" transform="matrix(0.8155491538585101,0.578687806715044,-0.578687806715044,0.8155491538585101,380.54330794482223,90.0486563798845)" fill="none" stroke="#00e7dc"></use><use xlink:href="#bbburst-shape-11" width="13.84437759924306" opacity="0.7256351896901203" transform="matrix(0.7786854427173419,-0.627414521110324,0.627414521110324,0.7786854427173419,527.118153234931,-33.39662074482089)" fill="none" stroke="#00e7dc"></use><use xlink:href="#bbburst-shape-11" width="10.824668143396542" opacity="0.9105936355486974" transform="matrix(0.715166216472253,-0.6989544211297062,0.6989544211297062,0.715166216472253,468.7238262103012,-206.78094632194887)" fill="none" stroke="#00aeef"></use><use xlink:href="#bbburst-shape-1" width="51.39671992498173" opacity="0.2983343668503695" transform="matrix(0.8385322958003257,-0.5448518962982831,0.5448518962982831,0.8385322958003257,-82.99764686317087,-41.7385556161131)" fill="#00f33f"></use><use xlink:href="#bbburst-shape-13" width="7.7637544555451985" opacity="0.9351068692009152" transform="matrix(0.983636621137818,-0.18016380756571665,0.18016380756571665,0.983636621137818,688.0562617014618,-338.8033994907773)" fill="none" stroke="#Ffbb040"></use><use xlink:href="#bbburst-shape-9" width="12.694079391035668" opacity="0.8545802042322386" transform="matrix(0.9334181147337022,0.3587905002741589,-0.3587905002741589,0.9334181147337022,923.8289197474527,-230.9602425963658)" fill="none" stroke="#00f33f"></use><use xlink:href="#bbburst-shape-13" width="16.773722801373093" opacity="0.7301996813544716" transform="matrix(0.8810223545791676,0.47307463547708783,-0.47307463547708783,0.8810223545791676,712.7342343851379,-337.04158586258563)" fill="none" stroke="#00e7dc"></use><use xlink:href="#bbburst-shape-1" width="49.039420614918235" opacity="0.08590302270598993" transform="matrix(0.8901025266348853,0.45576034500403084,-0.45576034500403084,0.8901025266348853,407.958956415465,361.07541224899524)" fill="#00e7dc"></use><use xlink:href="#bbburst-shape-1" width="42.32271620440107" opacity="0.4785184379376086" transform="matrix(0.9137625649458729,-0.4062486614175355,0.4062486614175355,0.9137625649458729,338.35043150291773,83.18127663595413)" fill="#ff298e"></use><use xlink:href="#bbburst-shape-11" width="21.531154700187635" opacity="0.6488828293672544" transform="matrix(0.9991860755139763,-0.0403383998068642,0.0403383998068642,0.9991860755139763,434.8867772144401,-305.19149755517776)" fill="none" stroke="#00aeef"></use><use xlink:href="#bbburst-shape-13" width="25.773981194158026" opacity="0.6710854084064732" transform="matrix(0.8409640828472746,0.541090945554296,-0.541090945554296,0.8409640828472746,677.9229735121622,-314.84004042451426)" fill="none" stroke="#Ffbb040"></use><use xlink:href="#bbburst-shape-11" width="19.924008926243808" opacity="0.7829776831993378" transform="matrix(0.953414138141236,0.301664517622481,-0.301664517622481,0.953414138141236,713.5543538500424,-295.07815770432387)" fill="none" stroke="#00e7dc"></use><use xlink:href="#bbburst-shape-1" width="19.62198464327606" opacity="0.6607876632913706" transform="matrix(0.9268327283068574,-0.37547449146282497,0.37547449146282497,0.9268327283068574,488.29272620491815,-63.992972277296246)" fill="#00f33f"></use><use xlink:href="#bbburst-shape-11" width="35.38074137940872" opacity="0.5944442044217284" transform="matrix(0.9969057155480003,-0.07860657929034623,0.07860657929034623,0.9969057155480003,525.607462345087,-60.59467780928048)" fill="none" stroke="#00aeef"></use><use xlink:href="#bbburst-shape-11" width="33.451941808955134" opacity="0.6204851024259423" transform="matrix(0.8859711518538607,-0.46374035632317284,0.46374035632317284,0.8859711518538607,257.1867957480668,-183.11351077463183)" fill="none" stroke="#Ffbb040"></use><use xlink:href="#bbburst-shape-1" width="31.617214468600835" opacity="0.556127454123677" transform="matrix(0.8870248567955638,0.46172167311791806,-0.46172167311791806,0.8870248567955638,936.4208842681198,80.47802911570625)" fill="#00f33f"></use><use xlink:href="#bbburst-shape-1" width="42.746423231965366" opacity="0.47179431244181536" transform="matrix(0.9725988424044185,0.23248976698681828,-0.23248976698681828,0.9725988424044185,461.9210734252636,-61.27483299533213)" fill="#00aeef"></use><use xlink:href="#bbburst-shape-10" width="37.000641752119364" opacity="0.5423215545243509" transform="matrix(0.778315483399199,-0.6278734014919498,0.6278734014919498,0.778315483399199,341.06747403622654,115.10545619561168)" fill="none" stroke="#Ffbb040"></use><use xlink:href="#bbburst-shape-10" width="29.7981574591995" opacity="0.5152799565898829" transform="matrix(0.9369784352404553,-0.34938719480591723,0.34938719480591723,0.9369784352404553,527.0498950387661,100.24022659669896)" fill="none" stroke="#00aeef"></use><use xlink:href="#bbburst-shape-9" width="29.65775011886905" opacity="0.5911515495486906" transform="matrix(0.7856039697745222,0.6187296684938518,-0.6187296684938518,0.7856039697745222,942.0348317532724,74.33833460318789)" fill="none" stroke="#00aeef"></use><use xlink:href="#bbburst-shape-11" width="13.265684075616019" opacity="0.8938788174901545" transform="matrix(0.9436400715797032,0.33097343595680395,-0.33097343595680395,0.9436400715797032,849.3019068270385,-306.6662160962382)" fill="none" stroke="#ff298e"></use><use xlink:href="#bbburst-shape-1" width="8.590747951634608" opacity="0.9721052312146966" transform="matrix(0.9356294590193113,0.35298373250793147,-0.35298373250793147,0.9356294590193113,927.9545327150556,-349.42929838732437)" fill="#ff298e"></use><use xlink:href="#bbburst-shape-11" width="0" opacity="0" transform="matrix(0.8941799571648393,0.44770772185063556,-0.44770772185063556,0.8941799571648393,48.76740793141168,-34.32712405478577)" fill="none" stroke="#00f33f"></use><use xlink:href="#bbburst-shape-11" width="5.999394083451774" opacity="0.9771358748065451" transform="matrix(0.804114645183997,-0.594474252933308,0.594474252933308,0.804114645183997,538.131756226953,-312.4868442971752)" fill="none" stroke="#Ffbb040"></use><use xlink:href="#bbburst-shape-11" width="37.79652482859018" opacity="0.40897314566532206" transform="matrix(0.7812800523508093,0.6241806467671973,-0.6241806467671973,0.7812800523508093,446.0959599989524,-277.1945350276298)" fill="none" stroke="#00e7dc"></use><use xlink:href="#bbburst-shape-11" width="9.256218135790096" opacity="0.9070382055456108" transform="matrix(0.9851277589596535,-0.17182345162151363,0.17182345162151363,0.9851277589596535,634.9326637897261,-378.4626111521932)" fill="none" stroke="#00f33f"></use><use xlink:href="#bbburst-shape-9" width="51.09186635867991" opacity="0.2288690684162109" transform="matrix(0.9123319432374944,0.4094513711645099,-0.4094513711645099,0.9123319432374944,196.35722684654618,-173.9074154493958)" fill="none" stroke="#ff298e"></use><use xlink:href="#bbburst-shape-1" width="17.00510515051147" opacity="0.7810351138268228" transform="matrix(0.7941145873507677,0.6077680660883065,-0.6077680660883065,0.7941145873507677,818.0495554230874,-305.6475632188848)" fill="#ff298e"></use><use xlink:href="#bbburst-shape-9" width="9.004158522993418" opacity="0.907539942991147" transform="matrix(0.7903572102802777,0.6126462928623472,-0.6126462928623472,0.7903572102802777,958.2439649674022,-278.8110690795138)" fill="none" stroke="#00e7dc"></use><use xlink:href="#bbburst-shape-9" width="17.674425189490936" opacity="0.7343926877081217" transform="matrix(0.9722165759305663,-0.2340831678823692,0.2340831678823692,0.9722165759305663,453.9887738617275,-281.439339421169)" fill="none" stroke="#Ffbb040"></use><use xlink:href="#bbburst-shape-10" width="7.135531658349126" opacity="0.9316332144280907" transform="matrix(0.954680594477963,0.2976322605619273,-0.2976322605619273,0.954680594477963,900.7084313118735,-316.21934127953017)" fill="none" stroke="#fff200"></use><use xlink:href="#bbburst-shape-13" width="19.030166723635617" opacity="0.6819290904413917" transform="matrix(0.8524669608104628,-0.5227811021130859,0.5227811021130859,0.8524669608104628,553.4026378537293,-19.300780693925617)" fill="none" stroke="#fff200"></use><use xlink:href="#bbburst-shape-1" width="35.18951166266428" opacity="0.38908077972541166" transform="matrix(0.7982731764218187,-0.6022955551931459,0.6022955551931459,0.7982731764218187,388.2749285890876,281.7812666017246)" fill="#00f33f"></use><use xlink:href="#bbburst-shape-11" width="11.964803222650305" opacity="0.8783224293554605" transform="matrix(0.8256031235071642,0.5642512582663987,-0.5642512582663987,0.8256031235071642,919.1458832112203,-266.945729196264)" fill="none" stroke="#Ffbb040"></use><use xlink:href="#bbburst-shape-11" width="7.999971195198492" opacity="0.9111014001174015" transform="matrix(0.7720239203089444,-0.635593475793143,0.635593475793143,0.7720239203089444,527.4603096794499,-218.74839929636528)" fill="none" stroke="#fff200"></use></svg>