<svg xmlns="http://www.w3.org/2000/svg" xmlns:xlink="http://www.w3.org/1999/xlink" viewBox="0 0 191.29 50"><path fill="#9cd8d7" opacity="1" d="M222,216.91h0c-7.68,0-12.45,5-12.45,13.09v3.1H206v6h3.59v17.07h6V239.12h3.59v-6h-3.59V230c0-4.69,2.17-7.07,6.43-7.07h.62v-6Z" transform="translate(-144.35 -215)"/><path fill="#9cd8d7" opacity="1" d="M326.53,234.71a9.26,9.26,0,0,0-6,1.85,9.43,9.43,0,0,0-5.94-1.85,9.06,9.06,0,0,0-4.49,1.08v-.18h-4.31v21.08h6V243.63c0-2,.53-2.9,2.89-2.9,2.52,0,3,.93,3,2.9v13.06h6V243.63c0-2,.48-2.9,2.85-2.9s3,.93,3,2.9v13.06h6V243.05C335.65,239.7,333.22,234.71,326.53,234.71Z" transform="translate(-144.35 -215)"/><path fill="#9cd8d7" opacity="1" d="M270.58,235a11.15,11.15,0,0,0-3.09.42v-9.88h-6v31.2h6V243.63c0-2,.86-2.66,3.09-2.66s2.79.7,2.79,2.66v13.06h6V243.63C279.39,238.19,276.1,235,270.58,235Z" transform="translate(-144.35 -215)"/><path fill="#9cd8d7" opacity="1" d="M230.37,233.1h-6v6l6-.1c3.76,0,4.85,1.86,5.26,3.73-1.1-1-3.16-1.19-4.86-1.19-4.62,0-9.15,2.31-9.15,7.63a7.46,7.46,0,0,0,2.19,5.55c1.61,1.56,3.94,2.35,6.93,2.35h.57a9.61,9.61,0,0,0,4.48-1.32v.93h6V243.83C241.8,237.21,237.42,233.1,230.37,233.1Zm5,16.15c0,2.58-2.54,2.69-4.2,2.69-1.83,0-4.2-.08-4.2-2.69s2.55-2.7,4.2-2.7C233,246.55,235.39,246.63,235.39,249.25Z" transform="translate(-144.35 -215)"/><polygon fill="#9cd8d7" opacity="1"  points="109.16 18.08 109.16 10.49 103.14 10.49 103.14 18.08 100.76 18.08 100.76 24.1 103.14 24.1 103.14 41.69 109.16 41.69 109.16 24.1 113.47 24.1 113.47 18.08 109.16 18.08"/><polygon fill="#9cd8d7" opacity="1"  points="158.65 20.75 152.27 20.75 147.75 34.03 143.37 20.75 136.7 20.75 144.78 42.01 144.78 48.88 150.57 48.88 150.57 42.01 158.65 20.75"/><path fill="#9cd8d7" opacity="1" d="M147.45,241.58l.06.47c.31,2.7,1.25,10.95,10.76,10.95a9.91,9.91,0,0,0,7.77-3.35,9.64,9.64,0,0,0,2-7.86,22.18,22.18,0,0,0-1.52-4.89,17,17,0,0,1-1.58-7.1c0-2.62.82-8.71,8.38-8.71s8.39,6.09,8.39,8.71a17,17,0,0,1-1.58,7.1,22.18,22.18,0,0,0-1.52,4.89,9.6,9.6,0,0,0,2,7.86,9.91,9.91,0,0,0,7.77,3.35c9.51,0,10.45-8.25,10.76-11l0-.46c.27-2.4.49-2.4,1.42-2.4v-6.09c-4.38,0-6.89,2.63-7.47,7.82l-.05.45c-.45,3.91-1.2,5.54-4.71,5.54a3.91,3.91,0,0,1-3.12-1.18,3.6,3.6,0,0,1-.67-2.92,17.61,17.61,0,0,1,1.17-3.63,22.8,22.8,0,0,0,2-9.37c0-7.37-4.48-14.8-14.48-14.8s-14.47,7.43-14.47,14.8a22.8,22.8,0,0,0,2,9.37,17.61,17.61,0,0,1,1.17,3.63,3.6,3.6,0,0,1-.67,2.92,3.91,3.91,0,0,1-3.12,1.18c-3.51,0-4.27-1.63-4.71-5.54l-.05-.45c-.58-5.19-3.09-7.82-7.47-7.82v6.09C147,239.18,147.19,239.18,147.45,241.58Z" transform="translate(-144.35 -215)"/><rect fill="#9cd8d7" opacity="1"  x="25.07" y="18.07" width="2.86" height="4.98"/><rect fill="#9cd8d7" opacity="1"  x="30.05" y="18.07" width="2.86" height="4.98"/><path fill="#9cd8d7" opacity="1" d="M198.94,256a15.46,15.46,0,0,1-10.53,3.8,14.56,14.56,0,0,1-11.38-5,14.23,14.23,0,0,1-1.45-2.07l-.92-1.62H172l-.92,1.62a14.23,14.23,0,0,1-1.45,2.07,14.56,14.56,0,0,1-11.38,5,15.55,15.55,0,0,1-10.43-3.7l-3.49,3.79A20.67,20.67,0,0,0,158.27,265a19.68,19.68,0,0,0,15.07-6.56A19.65,19.65,0,0,0,188.41,265c3.18,0,9.24-.68,14.06-5.2Z" transform="translate(-144.35 -215)"/></svg>
