<svg id="visual" viewBox="0 0 1080 1500" width="1080" height="1500" xmlns="http://www.w3.org/2000/svg" xmlns:xlink="http://www.w3.org/1999/xlink" version="1.1"><rect x="0" y="0" width="1080" height="1500" fill="#140021"></rect><path d="M0 1141L77 1141L77 1120L154 1120L154 1159L231 1159L231 1169L309 1169L309 1150L386 1150L386 1175L463 1175L463 1144L540 1144L540 1182L617 1182L617 1131L694 1131L694 1141L771 1141L771 1202L849 1202L849 1168L926 1168L926 1195L1003 1195L1003 1182L1080 1182L1080 1164L1080 1501L1080 1501L1003 1501L1003 1501L926 1501L926 1501L849 1501L849 1501L771 1501L771 1501L694 1501L694 1501L617 1501L617 1501L540 1501L540 1501L463 1501L463 1501L386 1501L386 1501L309 1501L309 1501L231 1501L231 1501L154 1501L154 1501L77 1501L77 1501L0 1501Z" fill="#9900ff"></path><path d="M0 1297L77 1297L77 1232L154 1232L154 1254L231 1254L231 1243L309 1243L309 1312L386 1312L386 1289L463 1289L463 1311L540 1311L540 1280L617 1280L617 1264L694 1264L694 1292L771 1292L771 1244L849 1244L849 1230L926 1230L926 1286L1003 1286L1003 1313L1080 1313L1080 1252L1080 1501L1080 1501L1003 1501L1003 1501L926 1501L926 1501L849 1501L849 1501L771 1501L771 1501L694 1501L694 1501L617 1501L617 1501L540 1501L540 1501L463 1501L463 1501L386 1501L386 1501L309 1501L309 1501L231 1501L231 1501L154 1501L154 1501L77 1501L77 1501L0 1501Z" fill="#7700c6"></path><path d="M0 1408L77 1408L77 1422L154 1422L154 1378L231 1378L231 1407L309 1407L309 1425L386 1425L386 1383L463 1383L463 1421L540 1421L540 1394L617 1394L617 1347L694 1347L694 1427L771 1427L771 1357L849 1357L849 1356L926 1356L926 1380L1003 1380L1003 1421L1080 1421L1080 1407L1080 1501L1080 1501L1003 1501L1003 1501L926 1501L926 1501L849 1501L849 1501L771 1501L771 1501L694 1501L694 1501L617 1501L617 1501L540 1501L540 1501L463 1501L463 1501L386 1501L386 1501L309 1501L309 1501L231 1501L231 1501L154 1501L154 1501L77 1501L77 1501L0 1501Z" fill="#560090"></path></svg>