<svg xmlns="http://www.w3.org/2000/svg" version="1.1" xmlns:xlink="http://www.w3.org/1999/xlink" xmlns:svgjs="http://svgjs.dev/svgjs" viewBox="0 0 800 800"><defs><linearGradient x1="50%" y1="0%" x2="50%" y2="100%" id="wwwhirl-grad"><stop stop-color="hsl(206, 75%, 49%)" stop-opacity="1" offset="45%"></stop><stop stop-color="hsl(331, 90%, 56%)" stop-opacity="1" offset="100%"></stop></linearGradient></defs><g stroke-width="2" stroke="url(#wwwhirl-grad)" fill="none" stroke-linecap="round"><path d="M20.50000263214119 421.2175023906361C20.50000263214119 421.2175023906361 89.50000454642571 370.50250098363705 89.50000454642571 370.50250098363705C89.50000454642571 370.50250098363705 158.50000646071018 408.79750204606495 158.50000646071018 408.79750204606495C158.50000646071018 408.79750204606495 227.50000837499465 364.29250081135143 227.50000837499465 364.29250081135143C227.50000837499465 364.29250081135143 296.5000102892792 425.35750250549324 296.5000102892792 425.35750250549324C296.5000102892792 425.35750250549324 365.5000122035637 388.0975014717796 365.5000122035637 388.0975014717796C365.5000122035637 388.0975014717796 434.5000141178482 431.5675026777788 434.5000141178482 431.5675026777788C434.5000141178482 431.5675026777788 503.50001603213263 357.04750061035156 503.50001603213263 357.04750061035156C503.50001603213263 357.04750061035156 572.5000179464172 442.9525029936358 572.5000179464172 442.9525029936358C572.5000179464172 442.9525029936358 641.5000198607017 383.95750135692253 641.5000198607017 383.95750135692253C641.5000198607017 383.95750135692253 710.5000217749862 432.60250270649306 710.5000217749862 432.60250270649306C710.5000217749862 432.60250270649306 779.5000236892707 391.2025015579224 779.5000236892707 391.2025015579224 " transform="rotate(0, 400, 400)"></path><path d="M32.00000255237934 420.574546847963C32.00000255237934 420.574546847963 98.90909531774614 371.3963636654184 98.90909531774614 371.3963636654184C98.90909531774614 371.3963636654184 165.81818808311291 408.530910150197 165.81818808311291 408.530910150197C165.81818808311291 408.530910150197 232.72728084847972 365.3745453165354 232.72728084847972 365.3745453165354C232.72728084847972 365.3745453165354 299.63637361384656 424.589092413885 299.63637361384656 424.589092413885C299.63637361384656 424.589092413885 366.5454663792133 388.45818232058696 366.5454663792133 388.45818232058696C366.5454663792133 388.45818232058696 433.45455914458006 430.610910762768 433.45455914458006 430.610910762768C433.45455914458006 430.610910762768 500.36365190994684 358.3490905761719 500.36365190994684 358.3490905761719C500.36365190994684 358.3490905761719 567.2727446753137 441.6509110690535 567.2727446753137 441.6509110690535C567.2727446753137 441.6509110690535 634.1818374406805 384.4436367546649 634.1818374406805 384.4436367546649C634.1818374406805 384.4436367546649 701.0909302060472 431.6145471542485 701.0909302060472 431.6145471542485C701.0909302060472 431.6145471542485 768.000022971414 391.46909149502847 768.000022971414 391.46909149502847 " transform="rotate(0, 400, 400)"></path><path d="M43.50000247261748 419.9315913052898C43.50000247261748 419.9315913052898 108.31818608906656 372.29022634719973 108.31818608906656 372.29022634719973C108.31818608906656 372.29022634719973 173.13636970551562 408.264318254329 173.13636970551562 408.264318254329C173.13636970551562 408.264318254329 237.95455332196468 366.4565898217193 237.95455332196468 366.4565898217193C237.95455332196468 366.4565898217193 302.7727369384138 423.82068232227675 302.7727369384138 423.82068232227675C302.7727369384138 423.82068232227675 367.59092055486286 388.81886316939426 367.59092055486286 388.81886316939426C367.59092055486286 388.81886316939426 432.409104171312 429.65431884775717 432.409104171312 429.65431884775717C432.409104171312 429.65431884775717 497.22728778776104 359.6506805419922 497.22728778776104 359.6506805419922C497.22728778776104 359.6506805419922 562.04547140421 440.3493191444713 562.04547140421 440.3493191444713C562.04547140421 440.3493191444713 626.8636550206592 384.92977215240734 626.8636550206592 384.92977215240734C626.8636550206592 384.92977215240734 691.6818386371083 430.62659160200394 691.6818386371083 430.62659160200394C691.6818386371083 430.62659160200394 756.5000222535573 391.73568143213447 756.5000222535573 391.73568143213447 " transform="rotate(0, 400, 400)"></path><path d="M55.000002392855635 419.28863576261665C55.000002392855635 419.28863576261665 117.72727686038701 373.18408902898113 117.72727686038701 373.18408902898113C117.72727686038701 373.18408902898113 180.45455132791835 407.997726358461 180.45455132791835 407.997726358461C180.45455132791835 407.997726358461 243.18182579544973 367.5386343269033 243.18182579544973 367.5386343269033C243.18182579544973 367.5386343269033 305.90910026298116 423.05227223066856 305.90910026298116 423.05227223066856C305.90910026298116 423.05227223066856 368.63637473051244 389.1795440182016 368.63637473051244 389.1795440182016C368.63637473051244 389.1795440182016 431.3636491980438 428.6977269327464 431.3636491980438 428.6977269327464C431.3636491980438 428.6977269327464 494.0909236655752 360.9522705078125 494.0909236655752 360.9522705078125C494.0909236655752 360.9522705078125 556.8181981331065 439.04772721988905 556.8181981331065 439.04772721988905C556.8181981331065 439.04772721988905 619.5454726006379 385.4159075501497 619.5454726006379 385.4159075501497C619.5454726006379 385.4159075501497 682.2727470681692 429.6386360497593 682.2727470681692 429.6386360497593C682.2727470681692 429.6386360497593 745.0000215357006 392.00227136924053 745.0000215357006 392.00227136924053 " transform="rotate(0, 400, 400)"></path><path d="M66.50000231309377 418.64568021994353C66.50000231309377 418.64568021994353 127.13636763170743 374.0779517107625 127.13636763170743 374.0779517107625C127.13636763170743 374.0779517107625 187.77273295032109 407.73113446259305 187.77273295032109 407.73113446259305C187.77273295032109 407.73113446259305 248.40909826893474 368.62067883208726 248.40909826893474 368.62067883208726C248.40909826893474 368.62067883208726 309.0454635875484 422.2838621390603 309.0454635875484 422.2838621390603C309.0454635875484 422.2838621390603 369.681828906162 389.54022486700893 369.681828906162 389.54022486700893C369.681828906162 389.54022486700893 430.3181942247757 427.74113501773553 430.3181942247757 427.74113501773553C430.3181942247757 427.74113501773553 490.9545595433894 362.2538604736328 490.9545595433894 362.2538604736328C490.9545595433894 362.2538604736328 551.590924862003 437.7461352953068 551.590924862003 437.7461352953068C551.590924862003 437.7461352953068 612.2272901806167 385.90204294789214 612.2272901806167 385.90204294789214C612.2272901806167 385.90204294789214 672.8636554992303 428.65068049751477 672.8636554992303 428.65068049751477C672.8636554992303 428.65068049751477 733.500020817844 392.2688613063466 733.500020817844 392.2688613063466 " transform="rotate(0, 400, 400)"></path><path d="M78.00000223333193 418.0027284919676C78.00000223333193 418.0027284919676 136.54545840302785 374.9718182072411 136.54545840302785 374.9718182072411C136.54545840302785 374.9718182072411 195.0909145727238 407.46454638142234 195.0909145727238 407.46454638142234C195.0909145727238 407.46454638142234 253.63637074241976 369.7027271519685 253.63637074241976 369.7027271519685C253.63637074241976 369.7027271519685 312.1818269121157 421.51545586214934 312.1818269121157 421.51545586214934C312.1818269121157 421.51545586214934 370.7272830818116 389.90090953051356 370.7272830818116 389.90090953051356C370.7272830818116 389.90090953051356 429.2727392515076 426.784546917422 429.2727392515076 426.784546917422C429.2727392515076 426.784546917422 487.81819542120354 363.5554542541504 487.81819542120354 363.5554542541504C487.81819542120354 363.5554542541504 546.3636515908995 436.4445471854218 546.3636515908995 436.4445471854218C546.3636515908995 436.4445471854218 604.9091077605954 386.3881821603318 604.9091077605954 386.3881821603318C604.9091077605954 386.3881821603318 663.4545639302913 427.6627287599674 663.4545639302913 427.6627287599674C663.4545639302913 427.6627287599674 722.0000200999873 392.53545505814986 722.0000200999873 392.53545505814986 " transform="rotate(0, 400, 400)"></path><path d="M89.50000215357007 417.35977294929444C89.50000215357007 417.35977294929444 145.9545491743483 375.8656808890224 145.9545491743483 375.8656808890224C145.9545491743483 375.8656808890224 202.4090961951265 407.19795448555436 202.4090961951265 407.19795448555436C202.4090961951265 407.19795448555436 258.86364321590474 370.7847716571524 258.86364321590474 370.7847716571524C258.86364321590474 370.7847716571524 315.318190236683 420.74704577054115 315.318190236683 420.74704577054115C315.318190236683 420.74704577054115 371.7727372574612 390.2615903793209 371.7727372574612 390.2615903793209C371.7727372574612 390.2615903793209 428.22728427823944 425.82795500241116 428.22728427823944 425.82795500241116C428.22728427823944 425.82795500241116 484.68183129901763 364.8570442199707 484.68183129901763 364.8570442199707C484.68183129901763 364.8570442199707 541.1363783197959 435.1429552608396 541.1363783197959 435.1429552608396C541.1363783197959 435.1429552608396 597.5909253405741 386.8743175580742 597.5909253405741 386.8743175580742C597.5909253405741 386.8743175580742 654.0454723613524 426.67477320772286 654.0454723613524 426.67477320772286C654.0454723613524 426.67477320772286 710.5000193821305 392.8020449952559 710.5000193821305 392.8020449952559 " transform="rotate(0, 400, 400)"></path><path d="M101.0000020738082 416.7168212213186C101.0000020738082 416.7168212213186 155.36363994566872 376.7595473855011 155.36363994566872 376.7595473855011C155.36363994566872 376.7595473855011 209.72727781752923 406.93136640438365 209.72727781752923 406.93136640438365C209.72727781752923 406.93136640438365 264.09091568938976 371.86681997703363 264.09091568938976 371.86681997703363C264.09091568938976 371.86681997703363 318.45455356125024 419.9786394936302 318.45455356125024 419.9786394936302C318.45455356125024 419.9786394936302 372.81819143311077 390.6222750428255 372.81819143311077 390.6222750428255C372.81819143311077 390.6222750428255 427.1818293049713 424.87136690209763 427.1818293049713 424.87136690209763C427.1818293049713 424.87136690209763 481.54546717683183 366.1586380004883 481.54546717683183 366.1586380004883C481.54546717683183 366.1586380004883 535.9091050486923 433.8413671509546 535.9091050486923 433.8413671509546C535.9091050486923 433.8413671509546 590.2727429205529 387.3604567705139 590.2727429205529 387.3604567705139C590.2727429205529 387.3604567705139 644.6363807924134 425.6868214701756 644.6363807924134 425.6868214701756C644.6363807924134 425.6868214701756 699.0000186642739 393.06863874705925 699.0000186642739 393.06863874705925 " transform="rotate(0, 400, 400)"></path><path d="M112.50000199404636 416.0738656786454C112.50000199404636 416.0738656786454 164.77273071698914 377.65341006728244 164.77273071698914 377.65341006728244C164.77273071698914 377.65341006728244 217.04545943993196 406.6647745085157 217.04545943993196 406.6647745085157C217.04545943993196 406.6647745085157 269.3181881628748 372.9488644822176 269.3181881628748 372.9488644822176C269.3181881628748 372.9488644822176 321.5909168858176 419.210229402022 321.5909168858176 419.210229402022C321.5909168858176 419.210229402022 373.86364560876035 390.98295589163286 373.86364560876035 390.98295589163286C373.86364560876035 390.98295589163286 426.13637433170317 423.91477498708684 426.13637433170317 423.91477498708684C426.13637433170317 423.91477498708684 478.409103054646 367.4602279663086 478.409103054646 367.4602279663086C478.409103054646 367.4602279663086 530.6818317775887 432.5397752263724 530.6818317775887 432.5397752263724C530.6818317775887 432.5397752263724 582.9545605005317 387.8465921682563 582.9545605005317 387.8465921682563C582.9545605005317 387.8465921682563 635.2272892234744 424.69886591793096 635.2272892234744 424.69886591793096C635.2272892234744 424.69886591793096 687.5000179464172 393.33522868416526 687.5000179464172 393.33522868416526 " transform="rotate(0, 400, 400)"></path><path d="M124.0000019142845 415.4309101359722C124.0000019142845 415.4309101359722 174.1818214883096 378.5472727490638 174.1818214883096 378.5472727490638C174.1818214883096 378.5472727490638 224.3636410623347 406.3981826126477 224.3636410623347 406.3981826126477C224.3636410623347 406.3981826126477 274.5454606363598 374.0309089874015 274.5454606363598 374.0309089874015C274.5454606363598 374.0309089874015 324.7272802103849 418.44181931041373 324.7272802103849 418.44181931041373C324.7272802103849 418.44181931041373 374.90909978440993 391.3436367404402 374.90909978440993 391.3436367404402C374.90909978440993 391.3436367404402 425.09091935843503 422.958183072076 425.09091935843503 422.958183072076C425.09091935843503 422.958183072076 475.2727389324602 368.7618179321289 475.2727389324602 368.7618179321289C475.2727389324602 368.7618179321289 525.4545585064852 431.2381833017902 525.4545585064852 431.2381833017902C525.4545585064852 431.2381833017902 575.6363780805104 388.3327275659987 575.6363780805104 388.3327275659987C575.6363780805104 388.3327275659987 625.8181976545354 423.7109103656864 625.8181976545354 423.7109103656864C625.8181976545354 423.7109103656864 676.0000172285605 393.6018186212713 676.0000172285605 393.6018186212713 " transform="rotate(0, 400, 400)"></path><path d="M135.50000183452266 414.7879545932991C135.50000183452266 414.7879545932991 183.59091225963002 379.4411354308452 183.59091225963002 379.4411354308452C183.59091225963002 379.4411354308452 231.6818226847374 406.1315907167798 231.6818226847374 406.1315907167798C231.6818226847374 406.1315907167798 279.7727331098448 375.1129534925855 279.7727331098448 375.1129534925855C279.7727331098448 375.1129534925855 327.8636435349522 417.67340921880555 327.8636435349522 417.67340921880555C327.8636435349522 417.67340921880555 375.95455396005957 391.7043175892475 375.95455396005957 391.7043175892475C375.95455396005957 391.7043175892475 424.04546438516695 422.0015911570652 424.04546438516695 422.0015911570652C424.04546438516695 422.0015911570652 472.13637481027433 370.0634078979492 472.13637481027433 370.0634078979492C472.13637481027433 370.0634078979492 520.2272852353817 429.9365913772079 520.2272852353817 429.9365913772079C520.2272852353817 429.9365913772079 568.3181956604891 388.8188629637411 568.3181956604891 388.8188629637411C568.3181956604891 388.8188629637411 616.4091060855965 422.7229548134418 616.4091060855965 422.7229548134418C616.4091060855965 422.7229548134418 664.5000165107039 393.8684085583774 664.5000165107039 393.8684085583774 " transform="rotate(0, 400, 400)"></path><path d="M146.9999864959717 414.1449990506259C146.9999864959717 414.1449990506259 192.9999877721614 380.3349981126265 192.9999877721614 380.3349981126265C192.9999877721614 380.3349981126265 238.99998904835104 405.86499882091175 238.99998904835104 405.86499882091175C238.99998904835104 405.86499882091175 284.9999903245407 376.19499799776946 284.9999903245407 376.19499799776946C284.9999903245407 376.19499799776946 330.9999916007304 416.9049991271973 330.9999916007304 416.9049991271973C330.9999916007304 416.9049991271973 376.99999287692003 392.0649984380549 376.99999287692003 392.0649984380549C376.99999287692003 392.0649984380549 422.99999415310975 421.04499924205436 422.99999415310975 421.04499924205436C422.99999415310975 421.04499924205436 468.9999954292994 371.36499786376953 468.9999954292994 371.36499786376953C468.9999954292994 371.36499786376953 514.9999967054891 428.63499945262566 514.9999967054891 428.63499945262566C514.9999967054891 428.63499945262566 560.9999979816788 389.3049983614835 560.9999979816788 389.3049983614835C560.9999979816788 389.3049983614835 606.9999992578685 421.73499926119723 606.9999992578685 421.73499926119723C606.9999992578685 421.73499926119723 653.000000534058 394.1349984954834 653.000000534058 394.1349984954834 " transform="rotate(0, 400, 400)"></path><path d="M158.49998641620988 413.5020454153014C158.49998641620988 413.5020454153014 202.40907854348183 381.2288627017565 202.40907854348183 381.2288627017565C202.40907854348183 381.2288627017565 246.31817067075377 405.59840883239247 246.31817067075377 405.59840883239247C246.31817067075377 405.59840883239247 290.2272627980258 377.27704441030204 290.2272627980258 377.27704441030204C290.2272627980258 377.27704441030204 334.1363549252977 416.1365909429377 334.1363549252977 416.1365909429377C334.1363549252977 416.1365909429377 378.04544705256967 392.4256811942109 378.04544705256967 392.4256811942109C378.04544705256967 392.4256811942109 421.9545391798416 420.0884092343922 421.9545391798416 420.0884092343922C421.9545391798416 420.0884092343922 465.86363130711356 372.6665897369385 465.86363130711356 372.6665897369385C465.86363130711356 372.6665897369385 509.7727234343855 427.33340943539207 509.7727234343855 427.33340943539207C509.7727234343855 427.33340943539207 553.6818155616575 389.7911356665745 553.6818155616575 389.7911356665745C553.6818155616575 389.7911356665745 597.5909076889294 420.74704561630125 597.5909076889294 420.74704561630125C597.5909076889294 420.74704561630125 641.4999998162014 394.4015903399381 641.4999998162014 394.4015903399381 " transform="rotate(0, 400, 400)"></path><path d="M169.99998633644802 412.8590879652796C169.99998633644802 412.8590879652796 211.81816931480228 382.1227234761892 211.81816931480228 382.1227234761892C211.81816931480228 382.1227234761892 253.6363522931565 405.33181502917586 253.6363522931565 405.33181502917586C253.6363522931565 405.33181502917586 295.45453527151074 378.35908700813735 295.45453527151074 378.35908700813735C295.45453527151074 378.35908700813735 337.272718249865 415.36817894398087 337.272718249865 415.36817894398087C337.272718249865 415.36817894398087 379.0909012282192 392.78636013566955 379.0909012282192 392.78636013566955C379.0909012282192 392.78636013566955 420.90908420657354 419.1318154120327 420.90908420657354 419.1318154120327C420.90908420657354 419.1318154120327 462.7272671849277 373.96817779541016 462.7272671849277 373.96817779541016C462.7272671849277 373.96817779541016 504.54545016328194 426.03181560346115 504.54545016328194 426.03181560346115C504.54545016328194 426.03181560346115 546.3636331416362 390.2772691569683 546.3636331416362 390.2772691569683C546.3636331416362 390.2772691569683 588.1818161199906 419.75908815670806 588.1818161199906 419.75908815670806C588.1818161199906 419.75908815670806 629.9999990983447 394.6681783696955 629.9999990983447 394.6681783696955 " transform="rotate(0, 400, 400)"></path><path d="M181.49998625668616 412.2161362373037C181.49998625668616 412.2161362373037 221.2272600861227 383.0165899726679 221.2272600861227 383.0165899726679C221.2272600861227 383.0165899726679 260.95453391555924 405.06522694800515 260.95453391555924 405.06522694800515C260.95453391555924 405.06522694800515 300.68180774499575 379.44113532801856 300.68180774499575 379.44113532801856C300.68180774499575 379.44113532801856 340.4090815744323 414.5997726670699 340.4090815744323 414.5997726670699C340.4090815744323 414.5997726670699 380.13635540386883 393.1470447991742 380.13635540386883 393.1470447991742C380.13635540386883 393.1470447991742 419.86362923330535 418.1752273117192 419.86362923330535 418.1752273117192C419.86362923330535 418.1752273117192 459.5909030627419 375.26977157592773 459.5909030627419 375.26977157592773C459.5909030627419 375.26977157592773 499.3181768921784 424.7302274935762 499.3181768921784 424.7302274935762C499.3181768921784 424.7302274935762 539.045450721615 390.76340836940795 539.045450721615 390.76340836940795C539.045450721615 390.76340836940795 578.7727245510515 418.7711364191607 578.7727245510515 418.7711364191607C578.7727245510515 418.7711364191607 618.499998380488 394.93477212149884 618.499998380488 394.93477212149884 " transform="rotate(0, 400, 400)"></path><path d="M192.99998617692432 411.573173065236C192.99998617692432 411.573173065236 230.63635085744312 383.9104450250547 230.63635085744312 383.9104450250547C230.63635085744312 383.9104450250547 268.272715537962 404.79862742274264 268.272715537962 404.79862742274264C268.272715537962 404.79862742274264 305.90908021848077 380.523172203808 305.90908021848077 380.523172203808C305.90908021848077 380.523172203808 343.54544489899956 413.83135494606717 343.54544489899956 413.83135494606717C343.54544489899956 413.83135494606717 381.18180957951836 393.50771801858696 381.18180957951836 393.50771801858696C381.18180957951836 393.50771801858696 418.8181742600372 417.2186277673138 418.8181742600372 417.2186277673138C418.8181742600372 417.2186277673138 456.45453894055606 376.5713539123535 456.45453894055606 376.5713539123535C456.45453894055606 376.5713539123535 494.09090362107486 423.42862793959944 494.09090362107486 423.42862793959944C494.09090362107486 423.42862793959944 531.7272683015938 391.24953613775585 531.7272683015938 391.24953613775585C531.7272683015938 391.24953613775585 569.3636329821124 417.7831732375216 569.3636329821124 417.7831732375216C569.3636329821124 417.7831732375216 606.9999976626314 395.2013544292103 606.9999976626314 395.2013544292103 " transform="rotate(0, 400, 400)"></path><path d="M204.49998609716246 410.93022705930605C204.49998609716246 410.93022705930605 240.04544162876357 384.8043172435792 240.04544162876357 384.8043172435792C240.04544162876357 384.8043172435792 275.59089716036465 404.53204506361783 275.59089716036465 404.53204506361783C275.59089716036465 404.53204506361783 311.1363526919658 381.6052262457351 311.1363526919658 381.6052262457351C311.1363526919658 381.6052262457351 346.6818082235669 413.0629543912021 346.6818082235669 413.0629543912021C346.6818082235669 413.0629543912021 382.227263755168 393.8684084041375 382.227263755168 393.8684084041375C382.227263755168 393.8684084041375 417.77271928676913 416.2620453890462 417.77271928676913 416.2620453890462C417.77271928676913 416.2620453890462 453.3181748183702 377.872953414917 453.3181748183702 377.872953414917C453.3181748183702 377.872953414917 488.8636303499713 422.1270455517604 488.8636303499713 422.1270455517604C488.8636303499713 422.1270455517604 524.4090858815724 391.73568107224145 524.4090858815724 391.73568107224145C524.4090858815724 391.73568107224145 559.9545414131735 416.79522722202023 559.9545414131735 416.79522722202023C559.9545414131735 416.79522722202023 595.4999969447747 395.46795390305954 595.4999969447747 395.46795390305954 " transform="rotate(0, 400, 400)"></path><path d="M215.9999860174006 410.28727533133014C215.9999860174006 410.28727533133014 249.45453240008402 385.69818374005786 249.45453240008402 385.69818374005786C249.45453240008402 385.69818374005786 282.9090787827674 404.2654569824471 282.9090787827674 404.2654569824471C282.9090787827674 404.2654569824471 316.3636251654508 382.68727456561635 316.3636251654508 382.68727456561635C316.3636251654508 382.68727456561635 349.8181715481342 412.29454811429116 349.8181715481342 412.29454811429116C349.8181715481342 412.29454811429116 383.2727179308176 394.2290930676421 383.2727179308176 394.2290930676421C383.2727179308176 394.2290930676421 416.727264313501 415.3054572887326 416.727264313501 415.3054572887326C416.727264313501 415.3054572887326 450.18181069618436 379.17454719543457 450.18181069618436 379.17454719543457C450.18181069618436 379.17454719543457 483.6363570788678 420.8254574418754 483.6363570788678 420.8254574418754C483.6363570788678 420.8254574418754 517.0909034615512 392.2218202846811 517.0909034615512 392.2218202846811C517.0909034615512 392.2218202846811 550.5454498442346 415.8072754844729 550.5454498442346 415.8072754844729C550.5454498442346 415.8072754844729 583.9999962269179 395.73454765486287 583.9999962269179 395.73454765486287 " transform="rotate(0, 400, 400)"></path><path d="M227.49998593763877 409.6443178813083C227.49998593763877 409.6443178813083 258.86362317140447 386.59204451449057 258.86362317140447 386.59204451449057C258.86362317140447 386.59204451449057 290.2272604051701 403.9988631792305 290.2272604051701 403.9988631792305C290.2272604051701 403.9988631792305 321.5908976389358 383.76931716345166 321.5908976389358 383.76931716345166C321.5908976389358 383.76931716345166 352.9545348727015 411.5261361153343 352.9545348727015 411.5261361153343C352.9545348727015 411.5261361153343 384.31817210646716 394.5897720091008 384.31817210646716 394.5897720091008C384.31817210646716 394.5897720091008 415.6818093402328 414.3488634663732 415.6818093402328 414.3488634663732C415.6818093402328 414.3488634663732 447.04544657399856 380.47613525390625 447.04544657399856 380.47613525390625C447.04544657399856 380.47613525390625 478.4090838077642 419.5238636099445 478.4090838077642 419.5238636099445C478.4090838077642 419.5238636099445 509.7727210415299 392.7079537750749 509.7727210415299 392.7079537750749C509.7727210415299 392.7079537750749 541.1363582752956 414.8193180248797 541.1363582752956 414.8193180248797C541.1363582752956 414.8193180248797 572.4999955090613 396.00113568462024 572.4999955090613 396.00113568462024 " transform="rotate(0, 400, 400)"></path><path d="M238.99998585787688 409.0013642459838C238.99998585787688 409.0013642459838 268.27271394272486 387.48590910362054 268.27271394272486 387.48590910362054C268.27271394272486 387.48590910362054 297.54544202757285 403.73227319071117 297.54544202757285 403.73227319071117C297.54544202757285 403.73227319071117 326.81817011242083 384.85136357598424 326.81817011242083 384.85136357598424C326.81817011242083 384.85136357598424 356.09089819726876 410.75772793107467 356.09089819726876 410.75772793107467C356.09089819726876 410.75772793107467 385.36362628211674 394.9504547652568 385.36362628211674 394.9504547652568C385.36362628211674 394.9504547652568 414.6363543669647 413.392273458711 414.6363543669647 413.392273458711C414.6363543669647 413.392273458711 443.9090824518127 381.7777271270752 443.9090824518127 381.7777271270752C443.9090824518127 381.7777271270752 473.1818105366607 418.2222735927109 473.1818105366607 418.2222735927109C473.1818105366607 418.2222735927109 502.4545386215086 393.1940910801659 502.4545386215086 393.1940910801659C502.4545386215086 393.1940910801659 531.7272667063567 413.8313643799837 531.7272667063567 413.8313643799837C531.7272667063567 413.8313643799837 560.9999947912046 396.26772752907493 560.9999947912046 396.26772752907493 " transform="rotate(0, 400, 400)"></path><path d="M250.49998577811505 408.35840870331066C250.49998577811505 408.35840870331066 277.6818047140453 388.3797717854019 277.6818047140453 388.3797717854019C277.6818047140453 388.3797717854019 304.8636236499756 403.4656812948432 304.8636236499756 403.4656812948432C304.8636236499756 403.4656812948432 332.0454425859058 385.9334080811682 332.0454425859058 385.9334080811682C332.0454425859058 385.9334080811682 359.22726152183606 409.9893178394665 359.22726152183606 409.9893178394665C359.22726152183606 409.9893178394665 386.4090804577663 395.31113561406414 386.4090804577663 395.31113561406414C386.4090804577663 395.31113561406414 413.5908993936966 412.4356815437002 413.5908993936966 412.4356815437002C413.5908993936966 412.4356815437002 440.77271832962685 383.0793170928955 440.77271832962685 383.0793170928955C440.77271832962685 383.0793170928955 467.95453726555706 416.9206816681287 467.95453726555706 416.9206816681287C467.95453726555706 416.9206816681287 495.1363562014874 393.6802264779083 495.1363562014874 393.6802264779083C495.1363562014874 393.6802264779083 522.3181751374177 412.84340882773915 522.3181751374177 412.84340882773915C522.3181751374177 412.84340882773915 549.4999940733478 396.534317466181 549.4999940733478 396.534317466181 " transform="rotate(0, 400, 400)"></path><path d="M261.99998569835316 407.7154550679861C261.99998569835316 407.7154550679861 287.09089548536576 389.2736363745319 287.09089548536576 389.2736363745319C287.09089548536576 389.2736363745319 312.18180527237826 403.19909130632385 312.18180527237826 403.19909130632385C312.18180527237826 403.19909130632385 337.27271505939086 387.01545449370076 337.27271505939086 387.01545449370076C337.27271505939086 387.01545449370076 362.36362484640335 409.22090965520687 362.36362484640335 409.22090965520687C362.36362484640335 409.22090965520687 387.4545346334159 395.6718183702201 387.4545346334159 395.6718183702201C387.4545346334159 395.6718183702201 412.54544442042845 411.479091536038 412.54544442042845 411.479091536038C412.54544442042845 411.479091536038 437.63635420744106 384.38090896606445 437.63635420744106 384.38090896606445C437.63635420744106 384.38090896606445 462.72726399445355 415.6190916508951 462.72726399445355 415.6190916508951C462.72726399445355 415.6190916508951 487.81817378146616 394.1663637829993 487.81817378146616 394.1663637829993C487.81817378146616 394.1663637829993 512.9090835684786 411.8554551828432 512.9090835684786 411.8554551828432C512.9090835684786 411.8554551828432 537.9999933554911 396.8009093106357 537.9999933554911 396.8009093106357 " transform="rotate(0, 400, 400)"></path><path d="M273.4999856185913 407.07250047898725C273.4999856185913 407.07250047898725 296.49998625668616 390.1675000099876 296.49998625668616 390.1675000099876C296.49998625668616 390.1675000099876 319.499986894781 402.9325003641302 319.499986894781 402.9325003641302C319.499986894781 402.9325003641302 342.4999875328758 388.097499952559 342.4999875328758 388.097499952559C342.4999875328758 388.097499952559 365.4999881709707 408.45250051727294 365.4999881709707 408.45250051727294C365.4999881709707 408.45250051727294 388.4999888090655 396.03250017270176 388.4999888090655 396.03250017270176C388.4999888090655 396.03250017270176 411.4999894471604 410.5225005747015 411.4999894471604 410.5225005747015C411.4999894471604 410.5225005747015 434.49999008525515 385.6824998855591 434.49999008525515 385.6824998855591C434.49999008525515 385.6824998855591 457.49999072335004 414.3175006799871 457.49999072335004 414.3175006799871C457.49999072335004 414.3175006799871 480.49999136144487 394.6525001344161 480.49999136144487 394.6525001344161C480.49999136144487 394.6525001344161 503.4999919995397 410.86750058427293 503.4999919995397 410.86750058427293C503.4999919995397 410.86750058427293 526.4999926376345 397.067500201416 526.4999926376345 397.067500201416 " transform="rotate(0, 400, 400)"></path><path d="M285.00000079761855 406.4295439826398C285.00000079761855 406.4295439826398 305.90909228679567 391.0613617380946 305.90909228679567 391.0613617380946C305.90909228679567 391.0613617380946 326.8181837759728 402.6659075145879 326.8181837759728 402.6659075145879C326.8181837759728 402.6659075145879 347.7272752651499 389.17954350406865 347.7272752651499 389.17954350406865C347.7272752651499 389.17954350406865 368.636366754327 407.68408947199043 368.636366754327 407.68408947199043C368.636366754327 407.68408947199043 389.54545824350413 396.3931800678348 389.54545824350413 396.3931800678348C389.54545824350413 396.3931800678348 410.4545497326813 409.5659077060164 410.4545497326813 409.5659077060164C410.4545497326813 409.5659077060164 431.3636412218584 386.9840888977051 431.3636412218584 386.9840888977051C431.3636412218584 386.9840888977051 452.2727327110355 413.0159078017306 452.2727327110355 413.0159078017306C452.2727327110355 413.0159078017306 473.18182420021265 395.13863457848413 473.18182420021265 395.13863457848413C473.18182420021265 395.13863457848413 494.0909156893898 409.879544078354 494.0909156893898 409.879544078354C494.0909156893898 409.879544078354 515.0000071785669 397.33408918484776 515.0000071785669 397.33408918484776 " transform="rotate(0, 400, 400)"></path><path d="M296.50000071785666 405.78658843996664C296.50000071785666 405.78658843996664 315.3181830581161 391.955224419876 315.3181830581161 391.955224419876C315.3181830581161 391.955224419876 334.1363653983755 402.3993156187199 334.1363653983755 402.3993156187199C334.1363653983755 402.3993156187199 352.9545477386349 390.26158800925265 352.9545477386349 390.26158800925265C352.9545477386349 390.26158800925265 371.7727300788943 406.9156793803822 371.7727300788943 406.9156793803822C371.7727300788943 406.9156793803822 390.5909124191537 396.7538609166421 390.5909124191537 396.7538609166421C390.5909124191537 396.7538609166421 409.40909475941316 408.60931579100554 409.40909475941316 408.60931579100554C409.40909475941316 408.60931579100554 428.22727709967256 388.2856788635254 428.22727709967256 388.2856788635254C428.22727709967256 388.2856788635254 447.04545943993196 411.71431587714835 447.04545943993196 411.71431587714835C447.04545943993196 411.71431587714835 465.8636417801914 395.62476997622656 465.8636417801914 395.62476997622656C465.8636417801914 395.62476997622656 484.68182412045076 408.89158852610944 484.68182412045076 408.89158852610944C484.68182412045076 408.89158852610944 503.5000064607102 397.6006791219538 503.5000064607102 397.6006791219538 " transform="rotate(0, 400, 400)"></path><path d="M308.00000063809483 405.1436367119907C308.00000063809483 405.1436367119907 324.7272738294365 392.8490909163546 324.7272738294365 392.8490909163546C324.7272738294365 392.8490909163546 341.45454702077825 402.1327275375493 341.45454702077825 402.1327275375493C341.45454702077825 402.1327275375493 358.18182021211993 391.34363632913386 358.18182021211993 391.34363632913386C358.18182021211993 391.34363632913386 374.9090934034616 406.14727310347126 374.9090934034616 406.14727310347126C374.9090934034616 406.14727310347126 391.63636659480335 397.11454558014674 391.63636659480335 397.11454558014674C391.63636659480335 397.11454558014674 408.36363978614503 407.652727690692 408.36363978614503 407.652727690692C408.36363978614503 407.652727690692 425.0909129774867 389.58727264404297 425.0909129774867 389.58727264404297C425.0909129774867 389.58727264404297 441.81818616882845 410.4127277672634 441.81818616882845 410.4127277672634C441.81818616882845 410.4127277672634 458.5454593601701 396.11090918866626 458.5454593601701 396.11090918866626C458.5454593601701 396.11090918866626 475.2727325515118 407.90363678856215 475.2727325515118 407.90363678856215C475.2727325515118 407.90363678856215 492.0000057428535 397.8672728737571 492.0000057428535 397.8672728737571 " transform="rotate(0, 400, 400)"></path><path d="M319.500000558333 404.5006821229919C319.500000558333 404.5006821229919 334.13636460075696 393.74295455181027 334.13636460075696 393.74295455181027C334.13636460075696 393.74295455181027 348.7727286431809 401.86613659535556 348.7727286431809 401.86613659535556C348.7727286431809 401.86613659535556 363.40909268560495 392.4256817879921 363.40909268560495 392.4256817879921C363.40909268560495 392.4256817879921 378.0454567280289 405.37886396553733 378.0454567280289 405.37886396553733C378.0454567280289 405.37886396553733 392.6818207704529 397.4752273826284 392.6818207704529 397.4752273826284C392.6818207704529 397.4752273826284 407.3181848128769 406.6961367293555 407.3181848128769 406.6961367293555C407.3181848128769 406.6961367293555 421.9545488553009 390.8888635635376 421.9545488553009 390.8888635635376C421.9545488553009 390.8888635635376 436.5909128977249 409.1111367963555 436.5909128977249 409.1111367963555C436.5909128977249 409.1111367963555 451.22727694014884 396.59704554008295 451.22727694014884 396.59704554008295C451.22727694014884 396.59704554008295 465.86364098257286 406.91568218999186 465.86364098257286 406.91568218999186C465.86364098257286 406.91568218999186 480.5000050249968 398.13386376453747 480.5000050249968 398.13386376453747 " transform="rotate(0, 400, 400)"></path><path d="M331.0000004785711 403.85772753399306C331.0000004785711 403.85772753399306 343.5454553720774 394.63681818726593 343.5454553720774 394.63681818726593C343.5454553720774 394.63681818726593 356.09091026558366 401.59954565316195 356.09091026558366 401.59954565316195C356.09091026558366 401.59954565316195 368.63636515908996 393.5077272468504 368.63636515908996 393.5077272468504C368.63636515908996 393.5077272468504 381.1818200525962 404.61045482760346 381.1818200525962 404.61045482760346C381.1818200525962 404.61045482760346 393.7272749461025 397.83590918511004 393.7272749461025 397.83590918511004C393.7272749461025 397.83590918511004 406.27272983960876 405.739545768019 406.27272983960876 405.739545768019C406.27272983960876 405.739545768019 418.81818473311506 392.1904544830322 418.81818473311506 392.1904544830322C418.81818473311506 392.1904544830322 431.3636396266213 407.8095458254475 431.3636396266213 407.8095458254475C431.3636396266213 407.8095458254475 443.9090945201276 397.0831818914997 443.9090945201276 397.0831818914997C443.9090945201276 397.0831818914997 456.45454941363386 405.9277275914216 456.45454941363386 405.9277275914216C456.45454941363386 405.9277275914216 469.0000043071401 398.40045465531784 469.0000043071401 398.40045465531784 " transform="rotate(0, 400, 400)"></path><path d="M342.499996584112 403.2147729449942C342.499996584112 403.2147729449942 352.95454232870054 395.53068182272165 352.95454232870054 395.53068182272165C352.95454232870054 395.53068182272165 363.4090880732891 401.3329547109683 363.4090880732891 401.3329547109683C363.4090880732891 401.3329547109683 373.8636338178777 394.58977270570864 373.8636338178777 394.58977270570864C373.8636338178777 394.58977270570864 384.31817956246624 403.84204568966953 384.31817956246624 403.84204568966953C384.31817956246624 403.84204568966953 394.77272530705477 398.1965909875917 394.77272530705477 398.1965909875917C394.77272530705477 398.1965909875917 405.22727105164336 404.7829548066825 405.22727105164336 404.7829548066825C405.22727105164336 404.7829548066825 415.68181679623194 393.49204540252686 415.68181679623194 393.49204540252686C415.68181679623194 393.49204540252686 426.13636254082047 406.5079548545396 426.13636254082047 406.5079548545396C426.13636254082047 406.5079548545396 436.59090828540906 397.5693182429164 436.59090828540906 397.5693182429164C436.59090828540906 397.5693182429164 447.04545402999764 404.9397729928513 447.04545402999764 404.9397729928513C447.04545402999764 404.9397729928513 457.4999997745862 398.66704554609817 457.4999997745862 398.66704554609817 " transform="rotate(0, 400, 400)"></path><path d="M353.9999965043502 402.5718183559954C353.9999965043502 402.5718183559954 362.363633100021 396.4245454581773 362.363633100021 396.4245454581773C362.363633100021 396.4245454581773 370.72726969569186 401.06636376877464 370.72726969569186 401.06636376877464C370.72726969569186 401.06636376877464 379.09090629136267 395.6718181645669 379.09090629136267 395.6718181645669C379.09090629136267 395.6718181645669 387.45454288703354 403.0736365517356 387.45454288703354 403.0736365517356C387.45454288703354 403.0736365517356 395.8181794827044 398.55727279007334 395.8181794827044 398.55727279007334C395.8181794827044 398.55727279007334 404.1818160783753 403.826363845346 404.1818160783753 403.826363845346C404.1818160783753 403.826363845346 412.5454526740461 394.7936363220215 412.5454526740461 394.7936363220215C412.5454526740461 394.7936363220215 420.90908926971696 405.2063638836317 420.90908926971696 405.2063638836317C420.90908926971696 405.2063638836317 429.27272586538777 398.0554545943331 429.27272586538777 398.0554545943331C429.27272586538777 398.0554545943331 437.63636246105864 403.9518183942811 437.63636246105864 403.9518183942811C437.63636246105864 403.9518183942811 445.9999990567295 398.93363643687854 445.9999990567295 398.93363643687854 " transform="rotate(0, 400, 400)"></path><path d="M365.4999964245883 401.9288637669965C365.4999964245883 401.9288637669965 371.77272387134144 397.31840909363297 371.77272387134144 397.31840909363297C371.77272387134144 397.31840909363297 378.0454513180946 400.799772826581 378.0454513180946 400.799772826581C378.0454513180946 400.799772826581 384.31817876484774 396.7538636234252 384.31817876484774 396.7538636234252C384.31817876484774 396.7538636234252 390.59090621160084 402.30522741380173 390.59090621160084 402.30522741380173C390.59090621160084 402.30522741380173 396.863633658354 398.917954592555 396.863633658354 398.917954592555C396.863633658354 398.917954592555 403.1363611051071 402.8697728840095 403.1363611051071 402.8697728840095C403.1363611051071 402.8697728840095 409.40908855186024 396.0952272415161 409.40908855186024 396.0952272415161C409.40908855186024 396.0952272415161 415.6818159986134 403.9047729127238 415.6818159986134 403.9047729127238C415.6818159986134 403.9047729127238 421.95454344536654 398.5415909457498 421.95454344536654 398.5415909457498C421.95454344536654 398.5415909457498 428.2272708921197 402.9638637957108 428.2272708921197 402.9638637957108C428.2272708921197 402.9638637957108 434.4999983388728 399.2002273276589 434.4999983388728 399.2002273276589 " transform="rotate(0, 400, 400)"></path><path d="M377.0000001595237 401.28590917799767C377.0000001595237 401.28590917799767 381.1818184573591 398.2122727290886 381.1818184573591 398.2122727290886C381.1818184573591 398.2122727290886 385.36363675519453 400.5331818843873 385.36363675519453 400.5331818843873C385.36363675519453 400.5331818843873 389.54545505302997 397.8359090822835 389.54545505302997 397.8359090822835C389.54545505302997 397.8359090822835 393.7272733508654 401.5368182758678 393.7272733508654 401.5368182758678C393.7272733508654 401.5368182758678 397.90909164870084 399.2786363950367 397.90909164870084 399.2786363950367C397.90909164870084 399.2786363950367 402.09090994653627 401.913181922673 402.09090994653627 401.913181922673C402.09090994653627 401.913181922673 406.2727282443717 397.39681816101074 406.2727282443717 397.39681816101074C406.2727282443717 397.39681816101074 410.45454654220714 402.6031819418158 410.45454654220714 402.6031819418158C410.45454654220714 402.6031819418158 414.6363648400425 399.02772729716656 414.6363648400425 399.02772729716656C414.6363648400425 399.02772729716656 418.81818313787795 401.97590919714054 418.81818313787795 401.97590919714054C418.81818313787795 401.97590919714054 423.0000014357134 399.4668182184393 423.0000014357134 399.4668182184393 " transform="rotate(0, 400, 400)"></path><path d="M388.5000000797619 400.64295458899886C388.5000000797619 400.64295458899886 390.59090922867955 399.10613636454434 390.59090922867955 399.10613636454434C390.59090922867955 399.10613636454434 392.68181837759727 400.26659094219366 392.68181837759727 400.26659094219366C392.68181837759727 400.26659094219366 394.772727526515 398.91795454114174 394.772727526515 398.91795454114174C394.772727526515 398.91795454114174 396.8636366754327 400.76840913793393 396.8636366754327 400.76840913793393C396.8636366754327 400.76840913793393 398.9545458243504 399.6393181975183 398.9545458243504 399.6393181975183C398.9545458243504 399.6393181975183 401.04545497326814 400.9565909613365 401.04545497326814 400.9565909613365C401.04545497326814 400.9565909613365 403.13636412218585 398.69840908050537 403.13636412218585 398.69840908050537C403.13636412218585 398.69840908050537 405.22727327110357 401.3015909709079 405.22727327110357 401.3015909709079C405.22727327110357 401.3015909709079 407.31818242002123 399.51386364858325 407.31818242002123 399.51386364858325C407.31818242002123 399.51386364858325 409.40909156893895 400.98795459857024 409.40909156893895 400.98795459857024C409.40909156893895 400.98795459857024 411.50000071785666 399.7334091092196 411.50000071785666 399.7334091092196 " transform="rotate(0, 400, 400)"></path></g></svg>